<svg xmlns="http://www.w3.org/2000/svg" xmlns:xlink="http://www.w3.org/1999/xlink" width="36" height="36" viewBox="0 0 36 36">
  <defs>
    <linearGradient id="a" x1="18" y1="1.181" x2="18" y2="37.126" gradientTransform="matrix(1, 0, 0, -1, 0, 37.276)" gradientUnits="userSpaceOnUse">
      <stop offset="0" stop-color="#3d3f58"/>
      <stop offset="1" stop-color="#777e92"/>
    </linearGradient>
  </defs>
  <title>icon</title>
  <circle cx="18" cy="18" r="18" fill="url(#a)"/>
  <path d="M5.842,11.267h5.045c2.8,0,4.254,1.148,4.254,3.338v.072a2.636,2.636,0,0,1-2.082,2.746,2.819,2.819,0,0,1,2.566,3.016v.072c0,2.351-1.543,3.59-4.505,3.59H5.842Zm4.578,5.277c1.4,0,1.957-.5,1.957-1.652v-.071c0-1.077-.611-1.562-1.975-1.562H8.679v3.285Zm.251,5.546c1.436,0,2.083-.646,2.083-1.812v-.072c0-1.185-.647-1.795-2.226-1.795H8.679V22.09Z" transform="translate(0 0)" fill="#fff"/>
  <path d="M24.281,8.832l-8.656,8.68,4.207,4.2,8.656-8.68Zm-2.15,8.139A1.7,1.7,0,1,1,23.758,15.2,1.7,1.7,0,0,1,22.131,16.971Z" transform="translate(0 0)" fill="#fff"/>
  <polygon points="30.322 10.907 28.35 11.894 29.486 13.027 21.623 20.912 22.021 21.707 32.982 16.219 30.322 10.907" fill="#fff"/>
</svg>
